<?xml version="1.0" encoding="UTF-8" standalone="no"?>
<!-- Created with Inkscape (http://www.inkscape.org/) -->

<svg
   xmlns:osb="http://www.openswatchbook.org/uri/2009/osb"
   xmlns:dc="http://purl.org/dc/elements/1.1/"
   xmlns:cc="http://creativecommons.org/ns#"
   xmlns:rdf="http://www.w3.org/1999/02/22-rdf-syntax-ns#"
   xmlns:svg="http://www.w3.org/2000/svg"
   xmlns="http://www.w3.org/2000/svg"
   xmlns:xlink="http://www.w3.org/1999/xlink"
   xmlns:sodipodi="http://sodipodi.sourceforge.net/DTD/sodipodi-0.dtd"
   xmlns:inkscape="http://www.inkscape.org/namespaces/inkscape"
   width="1280"
   height="800"
   viewBox="0 0 1920 1200"
   version="1.1"
   id="svg8"
   inkscape:version="0.92.4 (5da689c313, 2019-01-14)"
   sodipodi:docname="clock.svg">
  <defs
     id="defs2">
    <linearGradient
       id="linearGradient4737"
       osb:paint="solid">
      <stop
         style="stop-color:#000000;stop-opacity:1;"
         offset="0"
         id="stop4735" />
    </linearGradient>
    <pattern
       y="0"
       x="0"
       height="6"
       width="6"
       patternUnits="userSpaceOnUse"
       id="EMFhbasepattern" />
    <pattern
       y="0"
       x="0"
       height="6"
       width="6"
       patternUnits="userSpaceOnUse"
       id="EMFhbasepattern-4" />
    <clipPath
       id="SVGID_2_">
      <use
         height="100%"
         width="100%"
         y="0"
         x="0"
         xlink:href="#SVGID_1_"
         style="overflow:visible"
         id="use195" />
    </clipPath>
    <clipPath
       id="SVGID_4_">
      <use
         height="100%"
         width="100%"
         y="0"
         x="0"
         xlink:href="#SVGID_3_"
         style="overflow:visible"
         id="use201" />
    </clipPath>
    <clipPath
       id="clipPath1312">
      <use
         height="100%"
         width="100%"
         y="0"
         x="0"
         xlink:href="#SVGID_3_"
         style="overflow:visible"
         id="use1310" />
    </clipPath>
    <clipPath
       id="clipPath1316">
      <use
         height="100%"
         width="100%"
         y="0"
         x="0"
         xlink:href="#SVGID_3_"
         style="overflow:visible"
         id="use1314" />
    </clipPath>
    <clipPath
       id="clipPath1320">
      <use
         height="100%"
         width="100%"
         y="0"
         x="0"
         xlink:href="#SVGID_3_"
         style="overflow:visible"
         id="use1318" />
    </clipPath>
    <clipPath
       id="clipPath1324">
      <use
         height="100%"
         width="100%"
         y="0"
         x="0"
         xlink:href="#SVGID_3_"
         style="overflow:visible"
         id="use1322" />
    </clipPath>
    <clipPath
       id="clipPath1328">
      <use
         height="100%"
         width="100%"
         y="0"
         x="0"
         xlink:href="#SVGID_3_"
         style="overflow:visible"
         id="use1326" />
    </clipPath>
    <clipPath
       id="clipPath1332">
      <use
         height="100%"
         width="100%"
         y="0"
         x="0"
         xlink:href="#SVGID_3_"
         style="overflow:visible"
         id="use1330" />
    </clipPath>
    <clipPath
       id="clipPath1336">
      <use
         height="100%"
         width="100%"
         y="0"
         x="0"
         xlink:href="#SVGID_3_"
         style="overflow:visible"
         id="use1334" />
    </clipPath>
    <clipPath
       id="clipPath1340">
      <use
         height="100%"
         width="100%"
         y="0"
         x="0"
         xlink:href="#SVGID_3_"
         style="overflow:visible"
         id="use1338" />
    </clipPath>
    <clipPath
       id="clipPath1344">
      <use
         height="100%"
         width="100%"
         y="0"
         x="0"
         xlink:href="#SVGID_3_"
         style="overflow:visible"
         id="use1342" />
    </clipPath>
    <clipPath
       id="clipPath1348">
      <use
         height="100%"
         width="100%"
         y="0"
         x="0"
         xlink:href="#SVGID_3_"
         style="overflow:visible"
         id="use1346" />
    </clipPath>
    <clipPath
       id="clipPath1352">
      <use
         height="100%"
         width="100%"
         y="0"
         x="0"
         xlink:href="#SVGID_3_"
         style="overflow:visible"
         id="use1350" />
    </clipPath>
    <clipPath
       id="clipPath1356">
      <use
         height="100%"
         width="100%"
         y="0"
         x="0"
         xlink:href="#SVGID_3_"
         style="overflow:visible"
         id="use1354" />
    </clipPath>
    <clipPath
       id="clipPath1360">
      <use
         height="100%"
         width="100%"
         y="0"
         x="0"
         xlink:href="#SVGID_3_"
         style="overflow:visible"
         id="use1358" />
    </clipPath>
    <rect
       id="SVGID_1_"
       x="814.29999"
       y="548.70001"
       width="185"
       height="35.599998" />
    <rect
       id="SVGID_3_"
       x="814.29999"
       y="548.70001"
       width="185"
       height="35.599998" />
    <clipPath
       id="SVGID_2_-5">
      <use
         height="100%"
         width="100%"
         y="0"
         x="0"
         xlink:href="#SVGID_1_"
         style="overflow:visible"
         id="use195-6" />
    </clipPath>
    <clipPath
       id="SVGID_4_-6">
      <use
         height="100%"
         width="100%"
         y="0"
         x="0"
         xlink:href="#SVGID_3_"
         style="overflow:visible"
         id="use201-0" />
    </clipPath>
    <clipPath
       id="clipPath1115">
      <use
         height="100%"
         width="100%"
         y="0"
         x="0"
         xlink:href="#SVGID_3_"
         style="overflow:visible"
         id="use1113" />
    </clipPath>
    <clipPath
       id="clipPath1119">
      <use
         height="100%"
         width="100%"
         y="0"
         x="0"
         xlink:href="#SVGID_3_"
         style="overflow:visible"
         id="use1117" />
    </clipPath>
    <clipPath
       id="clipPath1123">
      <use
         height="100%"
         width="100%"
         y="0"
         x="0"
         xlink:href="#SVGID_3_"
         style="overflow:visible"
         id="use1121" />
    </clipPath>
    <clipPath
       id="clipPath1127">
      <use
         height="100%"
         width="100%"
         y="0"
         x="0"
         xlink:href="#SVGID_3_"
         style="overflow:visible"
         id="use1125" />
    </clipPath>
    <clipPath
       id="clipPath1131">
      <use
         height="100%"
         width="100%"
         y="0"
         x="0"
         xlink:href="#SVGID_3_"
         style="overflow:visible"
         id="use1129" />
    </clipPath>
    <clipPath
       id="clipPath1135">
      <use
         height="100%"
         width="100%"
         y="0"
         x="0"
         xlink:href="#SVGID_3_"
         style="overflow:visible"
         id="use1133" />
    </clipPath>
    <clipPath
       id="clipPath1139">
      <use
         height="100%"
         width="100%"
         y="0"
         x="0"
         xlink:href="#SVGID_3_"
         style="overflow:visible"
         id="use1137" />
    </clipPath>
    <clipPath
       id="clipPath1143">
      <use
         height="100%"
         width="100%"
         y="0"
         x="0"
         xlink:href="#SVGID_3_"
         style="overflow:visible"
         id="use1141" />
    </clipPath>
    <clipPath
       id="clipPath1147">
      <use
         height="100%"
         width="100%"
         y="0"
         x="0"
         xlink:href="#SVGID_3_"
         style="overflow:visible"
         id="use1145" />
    </clipPath>
    <clipPath
       id="clipPath1151">
      <use
         height="100%"
         width="100%"
         y="0"
         x="0"
         xlink:href="#SVGID_3_"
         style="overflow:visible"
         id="use1149" />
    </clipPath>
    <clipPath
       id="clipPath1155">
      <use
         height="100%"
         width="100%"
         y="0"
         x="0"
         xlink:href="#SVGID_3_"
         style="overflow:visible"
         id="use1153" />
    </clipPath>
    <clipPath
       id="clipPath1159">
      <use
         height="100%"
         width="100%"
         y="0"
         x="0"
         xlink:href="#SVGID_3_"
         style="overflow:visible"
         id="use1157" />
    </clipPath>
    <clipPath
       id="clipPath1163">
      <use
         height="100%"
         width="100%"
         y="0"
         x="0"
         xlink:href="#SVGID_3_"
         style="overflow:visible"
         id="use1161" />
    </clipPath>
    <rect
       height="35.599998"
       width="185"
       y="548.70001"
       x="814.29999"
       id="rect1547" />
    <rect
       height="35.599998"
       width="185"
       y="548.70001"
       x="814.29999"
       id="rect1552" />
    <clipPath
       id="SVGID_2_-5-2">
      <use
         height="100%"
         width="100%"
         y="0"
         x="0"
         xlink:href="#SVGID_1_"
         style="overflow:visible"
         id="use195-6-2" />
    </clipPath>
    <clipPath
       id="SVGID_4_-6-1">
      <use
         height="100%"
         width="100%"
         y="0"
         x="0"
         xlink:href="#SVGID_3_"
         style="overflow:visible"
         id="use201-0-4" />
    </clipPath>
    <clipPath
       id="clipPath10793">
      <use
         height="100%"
         width="100%"
         y="0"
         x="0"
         xlink:href="#SVGID_3_"
         style="overflow:visible"
         id="use10791" />
    </clipPath>
    <clipPath
       id="clipPath10797">
      <use
         height="100%"
         width="100%"
         y="0"
         x="0"
         xlink:href="#SVGID_3_"
         style="overflow:visible"
         id="use10795" />
    </clipPath>
    <clipPath
       id="clipPath10801">
      <use
         height="100%"
         width="100%"
         y="0"
         x="0"
         xlink:href="#SVGID_3_"
         style="overflow:visible"
         id="use10799" />
    </clipPath>
    <clipPath
       id="clipPath10805">
      <use
         height="100%"
         width="100%"
         y="0"
         x="0"
         xlink:href="#SVGID_3_"
         style="overflow:visible"
         id="use10803" />
    </clipPath>
    <clipPath
       id="clipPath10809">
      <use
         height="100%"
         width="100%"
         y="0"
         x="0"
         xlink:href="#SVGID_3_"
         style="overflow:visible"
         id="use10807" />
    </clipPath>
    <clipPath
       id="clipPath10813">
      <use
         height="100%"
         width="100%"
         y="0"
         x="0"
         xlink:href="#SVGID_3_"
         style="overflow:visible"
         id="use10811" />
    </clipPath>
    <clipPath
       id="clipPath10817">
      <use
         height="100%"
         width="100%"
         y="0"
         x="0"
         xlink:href="#SVGID_3_"
         style="overflow:visible"
         id="use10815" />
    </clipPath>
    <clipPath
       id="clipPath10821">
      <use
         height="100%"
         width="100%"
         y="0"
         x="0"
         xlink:href="#SVGID_3_"
         style="overflow:visible"
         id="use10819" />
    </clipPath>
    <clipPath
       id="clipPath10825">
      <use
         height="100%"
         width="100%"
         y="0"
         x="0"
         xlink:href="#SVGID_3_"
         style="overflow:visible"
         id="use10823" />
    </clipPath>
    <clipPath
       id="clipPath10829">
      <use
         height="100%"
         width="100%"
         y="0"
         x="0"
         xlink:href="#SVGID_3_"
         style="overflow:visible"
         id="use10827" />
    </clipPath>
    <clipPath
       id="clipPath10833">
      <use
         height="100%"
         width="100%"
         y="0"
         x="0"
         xlink:href="#SVGID_3_"
         style="overflow:visible"
         id="use10831" />
    </clipPath>
    <clipPath
       id="clipPath10837">
      <use
         height="100%"
         width="100%"
         y="0"
         x="0"
         xlink:href="#SVGID_3_"
         style="overflow:visible"
         id="use10835" />
    </clipPath>
    <clipPath
       id="clipPath10841">
      <use
         height="100%"
         width="100%"
         y="0"
         x="0"
         xlink:href="#SVGID_3_"
         style="overflow:visible"
         id="use10839" />
    </clipPath>
    <clipPath
       id="clipPath10845">
      <use
         height="100%"
         width="100%"
         y="0"
         x="0"
         xlink:href="#SVGID_1_"
         style="overflow:visible"
         id="use10843" />
    </clipPath>
    <clipPath
       id="clipPath10849">
      <use
         height="100%"
         width="100%"
         y="0"
         x="0"
         xlink:href="#SVGID_3_"
         style="overflow:visible"
         id="use10847" />
    </clipPath>
    <clipPath
       id="clipPath10853">
      <use
         height="100%"
         width="100%"
         y="0"
         x="0"
         xlink:href="#SVGID_3_"
         style="overflow:visible"
         id="use10851" />
    </clipPath>
    <clipPath
       id="clipPath10857">
      <use
         height="100%"
         width="100%"
         y="0"
         x="0"
         xlink:href="#SVGID_3_"
         style="overflow:visible"
         id="use10855" />
    </clipPath>
    <clipPath
       id="clipPath10861">
      <use
         height="100%"
         width="100%"
         y="0"
         x="0"
         xlink:href="#SVGID_3_"
         style="overflow:visible"
         id="use10859" />
    </clipPath>
    <clipPath
       id="clipPath10865">
      <use
         height="100%"
         width="100%"
         y="0"
         x="0"
         xlink:href="#SVGID_3_"
         style="overflow:visible"
         id="use10863" />
    </clipPath>
    <clipPath
       id="clipPath10869">
      <use
         height="100%"
         width="100%"
         y="0"
         x="0"
         xlink:href="#SVGID_3_"
         style="overflow:visible"
         id="use10867" />
    </clipPath>
    <clipPath
       id="clipPath10873">
      <use
         height="100%"
         width="100%"
         y="0"
         x="0"
         xlink:href="#SVGID_3_"
         style="overflow:visible"
         id="use10871" />
    </clipPath>
    <clipPath
       id="clipPath10877">
      <use
         height="100%"
         width="100%"
         y="0"
         x="0"
         xlink:href="#SVGID_3_"
         style="overflow:visible"
         id="use10875" />
    </clipPath>
    <clipPath
       id="clipPath10881">
      <use
         height="100%"
         width="100%"
         y="0"
         x="0"
         xlink:href="#SVGID_3_"
         style="overflow:visible"
         id="use10879" />
    </clipPath>
    <clipPath
       id="clipPath10885">
      <use
         height="100%"
         width="100%"
         y="0"
         x="0"
         xlink:href="#SVGID_3_"
         style="overflow:visible"
         id="use10883" />
    </clipPath>
    <clipPath
       id="clipPath10889">
      <use
         height="100%"
         width="100%"
         y="0"
         x="0"
         xlink:href="#SVGID_3_"
         style="overflow:visible"
         id="use10887" />
    </clipPath>
    <clipPath
       id="clipPath10893">
      <use
         height="100%"
         width="100%"
         y="0"
         x="0"
         xlink:href="#SVGID_3_"
         style="overflow:visible"
         id="use10891" />
    </clipPath>
    <clipPath
       id="clipPath10897">
      <use
         height="100%"
         width="100%"
         y="0"
         x="0"
         xlink:href="#SVGID_3_"
         style="overflow:visible"
         id="use10895" />
    </clipPath>
    <clipPath
       id="clipPath10901">
      <use
         height="100%"
         width="100%"
         y="0"
         x="0"
         xlink:href="#SVGID_3_"
         style="overflow:visible"
         id="use10899" />
    </clipPath>
    <rect
       height="35.599998"
       width="185"
       y="548.70001"
       x="814.29999"
       id="rect1281" />
    <rect
       height="35.599998"
       width="185"
       y="548.70001"
       x="814.29999"
       id="rect1286" />
    <rect
       id="rect7961"
       x="814.29999"
       y="548.70001"
       width="185"
       height="35.599998" />
    <rect
       id="rect7969"
       x="814.29999"
       y="548.70001"
       width="185"
       height="35.599998" />
  </defs>
  <sodipodi:namedview
     id="base"
     pagecolor="#231f26"
     bordercolor="#ff6666"
     borderopacity="1"
     inkscape:pageopacity="1"
     inkscape:pageshadow="2"
     inkscape:zoom="0.6667796"
     inkscape:cx="606.11988"
     inkscape:cy="384.70807"
     inkscape:document-units="px"
     inkscape:current-layer="layer1"
     showgrid="false"
     units="px"
     inkscape:window-width="1680"
     inkscape:window-height="987"
     inkscape:window-x="1272"
     inkscape:window-y="-8"
     inkscape:window-maximized="1"
     fit-margin-top="0"
     fit-margin-left="0"
     fit-margin-right="0"
     fit-margin-bottom="0"
     inkscape:showpageshadow="false"
     showborder="true"
     inkscape:pagecheckerboard="false"
     inkscape:snap-grids="false" />
  <metadata
     id="metadata5">
    <rdf:RDF>
      <cc:Work
         rdf:about="">
        <dc:format>image/svg+xml</dc:format>
        <dc:type
           rdf:resource="http://purl.org/dc/dcmitype/StillImage" />
        <dc:title />
      </cc:Work>
    </rdf:RDF>
  </metadata>
  <g
     inkscape:groupmode="layer"
     id="layer5"
     inkscape:label="Background"
     style="display:inline">
    <rect
       id="rect470"
       width="1920"
       height="1200"
       x="1.7763568e-15"
       y="0"
       style="stroke-width:1.27695167" />
  </g>
  <g
     inkscape:groupmode="layer"
     id="layer4"
     inkscape:label="Graphics"
     transform="translate(0,40.000016)"
     style="display:inline;opacity:1">
    <g
       style="display:inline"
       id="g10777"
       transform="translate(325.68785,286.32883)">
      <g
         transform="translate(589.61674,283.32146)"
         id="g235">
        <defs
           id="defs193">
          <rect
             height="35.599998"
             width="185"
             y="548.70001"
             x="814.29999"
             id="rect11129" />
        </defs>
        <clipPath
           id="clipPath1556">
          <use
             id="use1554"
             style="overflow:visible"
             xlink:href="#SVGID_1_"
             x="0"
             y="0"
             width="100%"
             height="100%" />
        </clipPath>
        <g
           id="g233"
           clip-path="url(#SVGID_2_-5-2)">
          <defs
             id="defs199">
            <rect
               height="35.599998"
               width="185"
               y="548.70001"
               x="814.29999"
               id="rect11134" />
          </defs>
          <clipPath
             id="clipPath1562">
            <use
               id="use1560"
               style="overflow:visible"
               xlink:href="#SVGID_3_"
               x="0"
               y="0"
               width="100%"
               height="100%" />
          </clipPath>
          <path
             id="path204"
             clip-path="url(#SVGID_4_-6-1)"
             d="m 847.3,569.9 c -0.3,-0.9 -0.9,-1.7 -1.8,-2.3 -0.8,-0.5 -1.8,-0.8 -2.7,-0.7 -0.7,0 -1.4,0.1 -2,0.5 -0.6,0.4 -1.1,0.8 -1.5,1.4 v -1.7 h -1.9 v 1.1 H 828 c -0.1,-0.9 -0.9,-1.5 -1.8,-1.5 -1,0 -1.8,0.8 -1.8,1.8 0,1 0.8,1.8 1.8,1.8 1,0 1.7,-0.7 1.8,-1.7 h 9.5 v 7.6 h -6.7 c -0.1,-0.9 -0.9,-1.7 -1.8,-1.7 -1,0 -1.8,0.8 -1.8,1.8 0,1 0.8,1.8 1.8,1.8 0.9,0 1.7,-0.7 1.8,-1.5 h 6.7 v 7.3 h 2 v -6 c 0.4,0.5 0.8,0.9 1.4,1.1 0.6,0.2 1.2,0.4 1.9,0.4 0.9,0 1.8,-0.3 2.6,-0.7 0.9,-0.5 1.6,-1.3 2,-2.2 0.4,-1.1 0.6,-2.2 0.6,-3.4 0,-1.1 -0.3,-2.2 -0.7,-3.2 m -21.1,0 c -0.8,0 -1.4,-0.6 -1.4,-1.4 0,-0.8 0.6,-1.4 1.4,-1.4 0.8,0 1.4,0.6 1.4,1.4 0,0.8 -0.6,1.4 -1.4,1.4 m 2.8,7.9 c -0.8,0 -1.4,-0.6 -1.4,-1.4 0,-0.8 0.6,-1.4 1.4,-1.4 0.8,0 1.4,0.6 1.4,1.4 0,0.8 -0.6,1.4 -1.4,1.4 m 16,-1 v 0 c -0.6,0.8 -1.5,1.2 -2.4,1.2 -0.9,0 -1.7,-0.4 -2.3,-1.1 -0.8,-1 -1.1,-2.2 -1,-3.5 -0.1,-1.3 0.2,-2.5 1,-3.5 0.6,-0.8 1.4,-1.2 2.4,-1.2 0.9,0 1.7,0.4 2.3,1.1 0.7,1 1.1,2.3 1,3.5 0.1,1.2 -0.3,2.5 -1,3.5"
             style="fill:#00adee"
             inkscape:connector-curvature="0" />
          <path
             id="path206"
             clip-path="url(#SVGID_4_-6-1)"
             d="m 859.6,568.4 c -1.1,-1.1 -2.6,-1.7 -4.1,-1.6 -1.4,0 -2.8,0.5 -3.9,1.4 -1.3,1.3 -2,3.1 -1.9,5 -0.1,1.8 0.5,3.5 1.7,4.8 1.1,1.1 2.6,1.7 4.1,1.6 1,0 2,-0.3 2.9,-0.8 0.8,-0.5 1.5,-1.3 2,-2.1 0.5,-1.2 0.8,-2.5 0.8,-3.7 0.1,-1.7 -0.5,-3.3 -1.6,-4.6 m -1.6,8.3 c -0.6,0.7 -1.5,1.2 -2.5,1.1 -1,0.1 -2,-0.4 -2.6,-1.1 -0.7,-1 -1.1,-2.3 -1,-3.5 -0.1,-1.2 0.3,-2.4 1,-3.4 0.7,-0.7 1.6,-1.1 2.6,-1.1 1,0 1.9,0.4 2.5,1.1 0.7,1 1.1,2.2 1,3.4 0.1,1.2 -0.3,2.5 -1,3.5 z"
             style="fill:#00adee"
             inkscape:connector-curvature="0" />
          <path
             id="path209"
             clip-path="url(#SVGID_4_-6-1)"
             d="m 865.8,579.3 -3.7,-12.1 h 2.1 l 1.9,7 0.7,2.6 c 0,-0.1 0.3,-1 0.6,-2.5 l 1.9,-7.1 h 2.1 l 1.9,7 0.6,2.4 0.8,-2.4 2.1,-7 h 2 l -3.7,12.1 H 873 l -1.9,-7.2 -0.5,-2.1 -2.5,9.4 z"
             style="fill:#00adee"
             inkscape:connector-curvature="0" />
          <path
             id="path211"
             clip-path="url(#SVGID_4_-6-1)"
             d="m 891.1,573 c 0.1,-1.7 -0.4,-3.3 -1.5,-4.6 -1,-1.1 -2.5,-1.7 -4,-1.6 -1.6,0 -3.1,0.6 -4.1,1.7 -1.2,1.3 -1.8,3 -1.6,4.8 -0.1,1.7 0.4,3.3 1.5,4.6 1.1,1.1 2.7,1.7 4.2,1.6 1.2,0 2.5,-0.3 3.5,-1 0.9,-0.7 1.6,-1.7 1.9,-2.9 l -2.1,-0.2 c -0.2,0.8 -0.7,1.4 -1.4,1.7 -0.5,0.4 -1.2,0.6 -1.9,0.6 -1,0 -1.9,-0.4 -2.5,-1.1 -0.7,-0.9 -1.1,-2 -1.1,-3.1 h 9.1 z m -9,-0.9 c 0,-1 0.4,-1.9 1.1,-2.5 0.6,-0.7 1.5,-1 2.4,-1 1,0 1.9,0.5 2.5,1.2 0.4,0.7 0.7,1.4 0.8,2.3 z"
             style="fill:#00adee"
             inkscape:connector-curvature="0" />
          <path
             id="path213"
             clip-path="url(#SVGID_4_-6-1)"
             d="m 893.6,579.3 v -12.1 h 1.9 v 1.8 c 0.3,-0.6 0.8,-1.2 1.3,-1.8 0.4,-0.3 0.9,-0.4 1.4,-0.4 0.7,0 1.5,0.2 2.1,0.6 l -0.8,1.9 c -0.5,-0.2 -1,-0.4 -1.5,-0.4 -0.4,0 -0.9,0.1 -1.2,0.4 -0.4,0.3 -0.7,0.7 -0.8,1.1 -0.3,0.8 -0.4,1.6 -0.4,2.4 v 6.3 h -2 z"
             style="fill:#00adee"
             inkscape:connector-curvature="0" />
          <path
             id="path215"
             clip-path="url(#SVGID_4_-6-1)"
             d="m 912,573 c 0.1,-1.7 -0.4,-3.3 -1.5,-4.6 -1,-1.1 -2.5,-1.7 -4,-1.6 -1.6,-0.1 -3.1,0.6 -4.1,1.7 -1.2,1.3 -1.7,3 -1.6,4.8 -0.1,1.7 0.4,3.3 1.5,4.6 1.1,1.1 2.7,1.7 4.3,1.6 1.2,0 2.5,-0.3 3.5,-1 0.9,-0.7 1.6,-1.7 1.9,-2.9 l -2.1,-0.2 c -0.2,0.8 -0.7,1.4 -1.4,1.7 -0.5,0.4 -1.2,0.6 -1.9,0.6 -1,0 -1.9,-0.4 -2.5,-1.1 -0.7,-0.9 -1.1,-2 -1.1,-3.1 h 9.1 V 573 Z m -9,-0.9 c 0,-0.9 0.4,-1.8 1.1,-2.5 0.6,-0.7 1.5,-1 2.4,-1 1,0 1.9,0.5 2.5,1.2 0.4,0.7 0.7,1.5 0.8,2.3 z"
             style="fill:#00adee"
             inkscape:connector-curvature="0" />
          <path
             id="path217"
             clip-path="url(#SVGID_4_-6-1)"
             d="m 922.3,562.7 v 6 c -0.3,-0.5 -0.8,-1 -1.4,-1.2 -0.6,-0.4 -1.3,-0.5 -2,-0.5 -1,0 -1.9,0.3 -2.7,0.7 -0.9,0.5 -1.5,1.3 -1.7,2.3 -0.4,1 -0.6,2.1 -0.6,3.3 0,1.1 0.2,2.2 0.6,3.3 0.4,0.9 1,1.7 1.9,2.3 0.8,0.5 1.7,0.8 2.6,0.7 1.4,0.1 2.7,-0.6 3.4,-1.7 v 1.7 h 2 v -16.8 h -2.1 z m -0.8,14 c -1.4,1.6 -5.6,2.5 -5.6,-3.5 -0.1,-1.3 0.3,-2.5 1,-3.5 0.5,-0.7 1.4,-1.1 2.2,-1.1 0.9,0 1.8,0.4 2.4,1.1 0.7,1.1 1.1,2.3 1,3.6 0.1,1.2 -0.3,2.4 -1,3.4"
             style="fill:#00adee"
             inkscape:connector-curvature="0" />
          <path
             id="path219"
             clip-path="url(#SVGID_4_-6-1)"
             d="m 944.2,570.6 c -0.2,-0.7 -0.6,-1.4 -1,-2 -0.4,-0.5 -1,-1 -1.6,-1.2 -0.6,-0.3 -1.3,-0.5 -2.1,-0.5 -1.3,0 -2.6,0.6 -3.4,1.6 v -6 h -2 v 16.9 H 936 V 578 c 0.8,1.1 2,1.8 3.4,1.8 1.4,0 2.8,-0.6 3.7,-1.8 1.1,-1.4 1.6,-3.1 1.5,-4.9 0,-0.9 -0.1,-1.7 -0.4,-2.5 z m -2.6,6.1 c -0.6,0.7 -1.5,1.1 -2.4,1.1 -1.1,0 -2.1,-0.7 -2.6,-1.6 -0.5,-1 -0.7,-2 -0.6,-3.1 -0.1,-1.2 0.2,-2.4 1,-3.4 0.6,-0.7 1.5,-1.1 2.4,-1.1 0.9,0 1.7,0.4 2.2,1.1 0.7,1 1.1,2.2 1,3.5 0.1,1.3 -0.3,2.5 -1,3.5"
             style="fill:#00adee"
             inkscape:connector-curvature="0" />
          <path
             id="path221"
             clip-path="url(#SVGID_4_-6-1)"
             d="m 947,583.9 -0.2,-1.9 c 0.4,0.1 0.7,0.1 1.1,0.1 0.4,0 0.8,-0.1 1.1,-0.2 0.3,-0.1 0.5,-0.4 0.6,-0.6 0.2,-0.5 0.5,-1 0.6,-1.5 0,-0.1 0.1,-0.2 0.1,-0.5 l -4.6,-12.1 h 2.3 l 2.5,7 c 0.4,0.9 0.7,1.9 0.9,2.9 0.2,-0.9 0.5,-1.9 0.9,-2.7 l 2.6,-7.1 h 2 l -4.6,12.4 c -0.3,0.9 -0.7,1.9 -1.1,2.7 -0.3,0.6 -0.7,1.1 -1.3,1.5 -0.5,0.4 -1.1,0.6 -1.7,0.5 -0.2,-0.2 -0.7,-0.2 -1.2,-0.5 z"
             style="fill:#00adee"
             inkscape:connector-curvature="0" />
          <path
             id="path223"
             clip-path="url(#SVGID_4_-6-1)"
             d="m 821.3,569.2 c -1,0 -1.7,0.7 -1.8,1.7 h -5 v 0.4 h 5 c 0.1,0.9 0.9,1.5 1.8,1.5 1,0 1.8,-0.8 1.8,-1.8 0.1,-1 -0.7,-1.8 -1.8,-1.8 m 0,3.2 c -0.8,0 -1.4,-0.6 -1.4,-1.4 0,-0.8 0.6,-1.4 1.4,-1.4 0.8,0 1.4,0.6 1.4,1.4 0,0.8 -0.6,1.4 -1.4,1.4"
             style="fill:#00adee"
             inkscape:connector-curvature="0" />
          <path
             id="path225"
             clip-path="url(#SVGID_4_-6-1)"
             d="m 833,578.6 c -0.9,0 -1.7,0.7 -1.8,1.6 h -6.5 l -1.9,-1.9 h -8.3 v 0.4 h 8.2 l 1.9,1.9 h 6.6 c 0.1,0.9 0.9,1.6 1.8,1.6 1,0 1.8,-0.8 1.8,-1.8 0,-1 -0.8,-1.8 -1.8,-1.8 m 0,3.2 c -0.8,0 -1.4,-0.6 -1.4,-1.4 0,-0.8 0.6,-1.4 1.4,-1.4 0.8,0 1.4,0.6 1.4,1.4 0,0.8 -0.6,1.4 -1.4,1.4"
             style="fill:#00adee"
             inkscape:connector-curvature="0" />
          <path
             id="path227"
             clip-path="url(#SVGID_4_-6-1)"
             d="m 833,570.6 c -0.9,0 -1.7,0.7 -1.8,1.6 h -5.4 l -3.3,3.4 h -8.3 v 0.4 h 8.5 l 3.2,-3.4 h 5.2 c 0.1,0.9 0.9,1.6 1.8,1.6 1,0 1.8,-0.8 1.8,-1.8 0.1,-1 -0.7,-1.8 -1.7,-1.8 m 0,3.2 c -0.8,0 -1.4,-0.6 -1.4,-1.4 0,-0.8 0.6,-1.4 1.4,-1.4 0.8,0 1.4,0.6 1.4,1.4 0,0.8 -0.6,1.4 -1.4,1.4"
             style="fill:#00adee"
             inkscape:connector-curvature="0" />
          <path
             id="path229"
             clip-path="url(#SVGID_4_-6-1)"
             d="m 999.3,565.7 c 0,0.3 -0.3,0.6 -0.6,0.6 h -3.2 v 11.4 c 0,0.5 -0.4,1 -1,1 h -24.3 c -0.5,0 -1,-0.4 -1,-1 V 566.3 H 966 c -0.2,0 -0.3,-0.1 -0.4,-0.2 -0.1,-0.1 -0.2,-0.3 -0.2,-0.5 0,-0.2 0.1,-0.3 0.2,-0.4 l 16.3,-16.3 c 0.3,-0.3 0.7,-0.3 0.9,0 l 8.5,8.5 v -1.6 c 0,-0.3 0.3,-0.6 0.6,-0.6 h 2.7 c 0.3,0 0.6,0.3 0.6,0.6 v 5 c 0,0.1 -0.1,0.3 -0.1,0.4 l 4.1,4.1 c 0.1,0.1 0.1,0.2 0.1,0.4"
             style="fill:#fff2df"
             inkscape:connector-curvature="0" />
          <path
             id="path231"
             clip-path="url(#SVGID_4_-6-1)"
             d="m 991,570.5 c -0.5,0 -0.9,0.3 -1.1,0.8 h -3.8 l 2.5,-2.4 v -2.5 l 1.8,-1.7 c 0.2,0.1 0.4,0.1 0.6,0.1 0.6,0 1.1,-0.5 1.1,-1.1 0,-0.6 -0.5,-1.1 -1.1,-1.1 -0.6,0 -1.1,0.5 -1.1,1.1 0,0.2 0,0.3 0.1,0.4 l -1.3,1.2 v -3.8 c 0.4,-0.2 0.8,-0.6 0.8,-1.1 0,-0.6 -0.5,-1.1 -1.1,-1.1 -0.6,0 -1.1,0.5 -1.1,1.1 0,0.5 0.3,0.9 0.8,1.1 v 3.8 l -1.2,-1.1 c 0.1,-0.1 0.1,-0.3 0.1,-0.5 0,-0.6 -0.5,-1.1 -1.1,-1.1 -0.6,0 -1.1,0.5 -1.1,1.1 0,0.6 0.5,1.1 1.1,1.1 0.2,0 0.3,0 0.5,-0.1 l 1.7,1.6 v 2.2 l -2.3,2.2 -0.1,-1.8 c 0.4,-0.2 0.8,-0.6 0.8,-1.1 0,-0.6 -0.5,-1.1 -1.1,-1.1 -0.6,0 -1.1,0.5 -1.1,1.1 0,0.5 0.3,0.9 0.8,1.1 l 0.1,2.5 -2.3,2.2 v -12.2 l 2,-1.9 c 0.1,0 0.3,0.1 0.4,0.1 0.6,0 1.1,-0.5 1.1,-1.1 0,-0.6 -0.5,-1.1 -1.1,-1.1 -0.6,0 -1.1,0.5 -1.1,1.1 0,0.2 0.1,0.4 0.2,0.6 l -1.8,1.7 -1.7,-1.8 c 0.1,-0.1 0.1,-0.3 0.1,-0.5 0,-0.6 -0.5,-1.1 -1.1,-1.1 -0.6,0 -1.1,0.5 -1.1,1.1 0,0.6 0.5,1.1 1.1,1.1 0.2,0 0.3,0 0.5,-0.1 l 1.8,2 v 8.5 l -3.1,-3 v -2.4 c 0.4,-0.2 0.8,-0.6 0.8,-1.1 0,-0.6 -0.5,-1.1 -1.1,-1.1 -0.6,0 -1.1,0.5 -1.1,1.1 0,0.5 0.3,0.9 0.8,1.1 v 1.7 l -2.5,-2.5 v -2.4 c 0.4,-0.2 0.8,-0.6 0.8,-1.1 0,-0.6 -0.5,-1.1 -1.1,-1.1 -0.6,0 -1.1,0.5 -1.1,1.1 0,0.5 0.3,0.9 0.8,1.1 v 2.7 l 2.8,2.8 h -1.8 c -0.2,-0.4 -0.6,-0.8 -1.1,-0.8 -0.6,0 -1.1,0.5 -1.1,1.1 0,0.6 0.5,1.1 1.1,1.1 0.5,0 0.9,-0.3 1.1,-0.8 h 2.6 l 3.5,3.4 v 6.5 l -1.9,-1.9 v -2.4 c 0.4,-0.2 0.8,-0.6 0.8,-1.1 0,-0.6 -0.5,-1.1 -1.1,-1.1 -0.6,0 -1.1,0.5 -1.1,1.1 0,0.5 0.3,0.9 0.8,1.1 v 1.7 l -3,-3 c 0,-0.1 0.1,-0.3 0.1,-0.4 0,-0.6 -0.5,-1.1 -1.1,-1.1 -0.6,0 -1.1,0.5 -1.1,1.1 0,0.6 0.5,1.1 1.1,1.1 0.2,0 0.4,-0.1 0.6,-0.2 l 3,3 h -1.8 c -0.2,-0.4 -0.6,-0.8 -1.1,-0.8 -0.6,0 -1.1,0.5 -1.1,1.1 0,0.6 0.5,1.1 1.1,1.1 0.5,0 0.9,-0.3 1.1,-0.8 h 2.6 l 2.8,2.8 3,-2.7 h 2.5 c 0.1,0.5 0.6,0.8 1.1,0.8 0.6,0 1.1,-0.5 1.1,-1.1 0,-0.6 -0.5,-1.1 -1.1,-1.1 -0.5,0 -0.9,0.3 -1,0.7 H 986 l -2.3,2.1 v -2.9 l 2.7,-2.6 h 4.5 c 0.2,0.4 0.6,0.8 1.1,0.8 0.6,0 1.1,-0.5 1.1,-1.1 -1,-0.6 -1.5,-1.1 -2.1,-1.1 m 0,-7.4 c 0.3,0 0.6,0.2 0.6,0.6 0,0.3 -0.3,0.6 -0.6,0.6 -0.3,0 -0.6,-0.3 -0.6,-0.6 0,-0.4 0.3,-0.6 0.6,-0.6 m -5.3,1.1 c -0.3,0 -0.6,-0.3 -0.6,-0.6 0,-0.3 0.3,-0.6 0.6,-0.6 0.3,0 0.6,0.2 0.6,0.6 -0.1,0.4 -0.3,0.6 -0.6,0.6 m 2,-3.8 c 0,-0.3 0.2,-0.6 0.6,-0.6 0.3,0 0.6,0.3 0.6,0.6 0,0.3 -0.2,0.6 -0.6,0.6 -0.3,-0.1 -0.6,-0.3 -0.6,-0.6 m -3.1,7.5 c 0,-0.3 0.3,-0.6 0.6,-0.6 0.3,0 0.6,0.3 0.6,0.6 0,0.3 -0.3,0.6 -0.6,0.6 -0.3,-0.1 -0.6,-0.3 -0.6,-0.6 m -5.6,-9.4 c 0,-0.3 0.2,-0.6 0.6,-0.6 0.4,0 0.6,0.2 0.6,0.6 0,0.3 -0.2,0.6 -0.6,0.6 -0.4,0 -0.6,-0.3 -0.6,-0.6 m -1.1,5 c 0,-0.3 0.3,-0.6 0.6,-0.6 0.3,0 0.6,0.2 0.6,0.6 0,0.3 -0.3,0.6 -0.6,0.6 -0.4,0 -0.6,-0.3 -0.6,-0.6 m -3.3,-3.2 c 0,-0.3 0.2,-0.6 0.6,-0.6 0.4,0 0.6,0.3 0.6,0.6 0,0.3 -0.2,0.6 -0.6,0.6 -0.4,0 -0.6,-0.3 -0.6,-0.6 m 0.1,7.5 c -0.3,0 -0.6,-0.2 -0.6,-0.6 0,-0.3 0.3,-0.6 0.6,-0.6 0.3,0 0.6,0.2 0.6,0.6 0,0.3 -0.3,0.6 -0.6,0.6 m 4.4,4.3 c 0,-0.3 0.2,-0.6 0.6,-0.6 0.3,0 0.6,0.2 0.6,0.6 0,0.3 -0.2,0.6 -0.6,0.6 -0.4,0 -0.6,-0.3 -0.6,-0.6 m -3.2,4.2 c -0.3,0 -0.6,-0.2 -0.6,-0.6 0,-0.3 0.2,-0.6 0.6,-0.6 0.3,0 0.6,0.3 0.6,0.6 -0.1,0.4 -0.3,0.6 -0.6,0.6 m 12.9,-1 c 0.3,0 0.6,0.2 0.6,0.6 0,0.3 -0.2,0.6 -0.6,0.6 -0.3,0 -0.6,-0.3 -0.6,-0.6 0,-0.3 0.3,-0.6 0.6,-0.6 M 985,557.9 c 0.3,0 0.6,0.2 0.6,0.6 0,0.3 -0.3,0.6 -0.6,0.6 -0.3,0 -0.6,-0.3 -0.6,-0.6 0,-0.3 0.3,-0.6 0.6,-0.6 m -9.8,14.2 c -0.3,0 -0.6,-0.2 -0.6,-0.6 0,-0.4 0.2,-0.6 0.6,-0.6 0.4,0 0.6,0.2 0.6,0.6 0,0.4 -0.3,0.6 -0.6,0.6 m 15.8,0.1 c -0.3,0 -0.6,-0.2 -0.6,-0.6 0,-0.3 0.2,-0.6 0.6,-0.6 0.4,0 0.6,0.3 0.6,0.6 -0.1,0.3 -0.3,0.6 -0.6,0.6"
             style="fill:#00adee"
             inkscape:connector-curvature="0" />
        </g>
      </g>
      <g
         id="g8007"
         transform="translate(589.61674,283.32146)">
        <defs
           id="defs7963">
          <rect
             id="rect11155"
             x="814.29999"
             y="548.70001"
             width="185"
             height="35.599998" />
        </defs>
        <clipPath
           id="clipPath7967">
          <use
             height="100%"
             width="100%"
             y="0"
             x="0"
             xlink:href="#SVGID_1_"
             style="overflow:visible"
             id="use7965" />
        </clipPath>
        <g
           clip-path="url(#SVGID_2_-5-2)"
           id="g8005">
          <defs
             id="defs7971">
            <rect
               id="rect11160"
               x="814.29999"
               y="548.70001"
               width="185"
               height="35.599998" />
          </defs>
          <clipPath
             id="clipPath7975">
            <use
               height="100%"
               width="100%"
               y="0"
               x="0"
               xlink:href="#SVGID_3_"
               style="overflow:visible"
               id="use7973" />
          </clipPath>
          <path
             inkscape:connector-curvature="0"
             style="fill:#00adee"
             d="m 847.3,569.9 c -0.3,-0.9 -0.9,-1.7 -1.8,-2.3 -0.8,-0.5 -1.8,-0.8 -2.7,-0.7 -0.7,0 -1.4,0.1 -2,0.5 -0.6,0.4 -1.1,0.8 -1.5,1.4 v -1.7 h -1.9 v 1.1 H 828 c -0.1,-0.9 -0.9,-1.5 -1.8,-1.5 -1,0 -1.8,0.8 -1.8,1.8 0,1 0.8,1.8 1.8,1.8 1,0 1.7,-0.7 1.8,-1.7 h 9.5 v 7.6 h -6.7 c -0.1,-0.9 -0.9,-1.7 -1.8,-1.7 -1,0 -1.8,0.8 -1.8,1.8 0,1 0.8,1.8 1.8,1.8 0.9,0 1.7,-0.7 1.8,-1.5 h 6.7 v 7.3 h 2 v -6 c 0.4,0.5 0.8,0.9 1.4,1.1 0.6,0.2 1.2,0.4 1.9,0.4 0.9,0 1.8,-0.3 2.6,-0.7 0.9,-0.5 1.6,-1.3 2,-2.2 0.4,-1.1 0.6,-2.2 0.6,-3.4 0,-1.1 -0.3,-2.2 -0.7,-3.2 m -21.1,0 c -0.8,0 -1.4,-0.6 -1.4,-1.4 0,-0.8 0.6,-1.4 1.4,-1.4 0.8,0 1.4,0.6 1.4,1.4 0,0.8 -0.6,1.4 -1.4,1.4 m 2.8,7.9 c -0.8,0 -1.4,-0.6 -1.4,-1.4 0,-0.8 0.6,-1.4 1.4,-1.4 0.8,0 1.4,0.6 1.4,1.4 0,0.8 -0.6,1.4 -1.4,1.4 m 16,-1 v 0 c -0.6,0.8 -1.5,1.2 -2.4,1.2 -0.9,0 -1.7,-0.4 -2.3,-1.1 -0.8,-1 -1.1,-2.2 -1,-3.5 -0.1,-1.3 0.2,-2.5 1,-3.5 0.6,-0.8 1.4,-1.2 2.4,-1.2 0.9,0 1.7,0.4 2.3,1.1 0.7,1 1.1,2.3 1,3.5 0.1,1.2 -0.3,2.5 -1,3.5"
             clip-path="url(#SVGID_4_-6-1)"
             id="path7977" />
          <path
             inkscape:connector-curvature="0"
             style="fill:#00adee"
             d="m 859.6,568.4 c -1.1,-1.1 -2.6,-1.7 -4.1,-1.6 -1.4,0 -2.8,0.5 -3.9,1.4 -1.3,1.3 -2,3.1 -1.9,5 -0.1,1.8 0.5,3.5 1.7,4.8 1.1,1.1 2.6,1.7 4.1,1.6 1,0 2,-0.3 2.9,-0.8 0.8,-0.5 1.5,-1.3 2,-2.1 0.5,-1.2 0.8,-2.5 0.8,-3.7 0.1,-1.7 -0.5,-3.3 -1.6,-4.6 m -1.6,8.3 c -0.6,0.7 -1.5,1.2 -2.5,1.1 -1,0.1 -2,-0.4 -2.6,-1.1 -0.7,-1 -1.1,-2.3 -1,-3.5 -0.1,-1.2 0.3,-2.4 1,-3.4 0.7,-0.7 1.6,-1.1 2.6,-1.1 1,0 1.9,0.4 2.5,1.1 0.7,1 1.1,2.2 1,3.4 0.1,1.2 -0.3,2.5 -1,3.5 z"
             clip-path="url(#SVGID_4_-6-1)"
             id="path7979" />
          <path
             inkscape:connector-curvature="0"
             style="fill:#00adee"
             d="m 865.8,579.3 -3.7,-12.1 h 2.1 l 1.9,7 0.7,2.6 c 0,-0.1 0.3,-1 0.6,-2.5 l 1.9,-7.1 h 2.1 l 1.9,7 0.6,2.4 0.8,-2.4 2.1,-7 h 2 l -3.7,12.1 H 873 l -1.9,-7.2 -0.5,-2.1 -2.5,9.4 z"
             clip-path="url(#SVGID_4_-6-1)"
             id="path7981" />
          <path
             inkscape:connector-curvature="0"
             style="fill:#00adee"
             d="m 891.1,573 c 0.1,-1.7 -0.4,-3.3 -1.5,-4.6 -1,-1.1 -2.5,-1.7 -4,-1.6 -1.6,0 -3.1,0.6 -4.1,1.7 -1.2,1.3 -1.8,3 -1.6,4.8 -0.1,1.7 0.4,3.3 1.5,4.6 1.1,1.1 2.7,1.7 4.2,1.6 1.2,0 2.5,-0.3 3.5,-1 0.9,-0.7 1.6,-1.7 1.9,-2.9 l -2.1,-0.2 c -0.2,0.8 -0.7,1.4 -1.4,1.7 -0.5,0.4 -1.2,0.6 -1.9,0.6 -1,0 -1.9,-0.4 -2.5,-1.1 -0.7,-0.9 -1.1,-2 -1.1,-3.1 h 9.1 z m -9,-0.9 c 0,-1 0.4,-1.9 1.1,-2.5 0.6,-0.7 1.5,-1 2.4,-1 1,0 1.9,0.5 2.5,1.2 0.4,0.7 0.7,1.4 0.8,2.3 z"
             clip-path="url(#SVGID_4_-6-1)"
             id="path7983" />
          <path
             inkscape:connector-curvature="0"
             style="fill:#00adee"
             d="m 893.6,579.3 v -12.1 h 1.9 v 1.8 c 0.3,-0.6 0.8,-1.2 1.3,-1.8 0.4,-0.3 0.9,-0.4 1.4,-0.4 0.7,0 1.5,0.2 2.1,0.6 l -0.8,1.9 c -0.5,-0.2 -1,-0.4 -1.5,-0.4 -0.4,0 -0.9,0.1 -1.2,0.4 -0.4,0.3 -0.7,0.7 -0.8,1.1 -0.3,0.8 -0.4,1.6 -0.4,2.4 v 6.3 h -2 z"
             clip-path="url(#SVGID_4_-6-1)"
             id="path7985" />
          <path
             inkscape:connector-curvature="0"
             style="fill:#00adee"
             d="m 912,573 c 0.1,-1.7 -0.4,-3.3 -1.5,-4.6 -1,-1.1 -2.5,-1.7 -4,-1.6 -1.6,-0.1 -3.1,0.6 -4.1,1.7 -1.2,1.3 -1.7,3 -1.6,4.8 -0.1,1.7 0.4,3.3 1.5,4.6 1.1,1.1 2.7,1.7 4.3,1.6 1.2,0 2.5,-0.3 3.5,-1 0.9,-0.7 1.6,-1.7 1.9,-2.9 l -2.1,-0.2 c -0.2,0.8 -0.7,1.4 -1.4,1.7 -0.5,0.4 -1.2,0.6 -1.9,0.6 -1,0 -1.9,-0.4 -2.5,-1.1 -0.7,-0.9 -1.1,-2 -1.1,-3.1 h 9.1 V 573 Z m -9,-0.9 c 0,-0.9 0.4,-1.8 1.1,-2.5 0.6,-0.7 1.5,-1 2.4,-1 1,0 1.9,0.5 2.5,1.2 0.4,0.7 0.7,1.5 0.8,2.3 z"
             clip-path="url(#SVGID_4_-6-1)"
             id="path7987" />
          <path
             inkscape:connector-curvature="0"
             style="fill:#00adee"
             d="m 922.3,562.7 v 6 c -0.3,-0.5 -0.8,-1 -1.4,-1.2 -0.6,-0.4 -1.3,-0.5 -2,-0.5 -1,0 -1.9,0.3 -2.7,0.7 -0.9,0.5 -1.5,1.3 -1.7,2.3 -0.4,1 -0.6,2.1 -0.6,3.3 0,1.1 0.2,2.2 0.6,3.3 0.4,0.9 1,1.7 1.9,2.3 0.8,0.5 1.7,0.8 2.6,0.7 1.4,0.1 2.7,-0.6 3.4,-1.7 v 1.7 h 2 v -16.8 h -2.1 z m -0.8,14 c -1.4,1.6 -5.6,2.5 -5.6,-3.5 -0.1,-1.3 0.3,-2.5 1,-3.5 0.5,-0.7 1.4,-1.1 2.2,-1.1 0.9,0 1.8,0.4 2.4,1.1 0.7,1.1 1.1,2.3 1,3.6 0.1,1.2 -0.3,2.4 -1,3.4"
             clip-path="url(#SVGID_4_-6-1)"
             id="path7989" />
          <path
             inkscape:connector-curvature="0"
             style="fill:#00adee"
             d="m 944.2,570.6 c -0.2,-0.7 -0.6,-1.4 -1,-2 -0.4,-0.5 -1,-1 -1.6,-1.2 -0.6,-0.3 -1.3,-0.5 -2.1,-0.5 -1.3,0 -2.6,0.6 -3.4,1.6 v -6 h -2 v 16.9 H 936 V 578 c 0.8,1.1 2,1.8 3.4,1.8 1.4,0 2.8,-0.6 3.7,-1.8 1.1,-1.4 1.6,-3.1 1.5,-4.9 0,-0.9 -0.1,-1.7 -0.4,-2.5 z m -2.6,6.1 c -0.6,0.7 -1.5,1.1 -2.4,1.1 -1.1,0 -2.1,-0.7 -2.6,-1.6 -0.5,-1 -0.7,-2 -0.6,-3.1 -0.1,-1.2 0.2,-2.4 1,-3.4 0.6,-0.7 1.5,-1.1 2.4,-1.1 0.9,0 1.7,0.4 2.2,1.1 0.7,1 1.1,2.2 1,3.5 0.1,1.3 -0.3,2.5 -1,3.5"
             clip-path="url(#SVGID_4_-6-1)"
             id="path7991" />
          <path
             inkscape:connector-curvature="0"
             style="fill:#00adee"
             d="m 947,583.9 -0.2,-1.9 c 0.4,0.1 0.7,0.1 1.1,0.1 0.4,0 0.8,-0.1 1.1,-0.2 0.3,-0.1 0.5,-0.4 0.6,-0.6 0.2,-0.5 0.5,-1 0.6,-1.5 0,-0.1 0.1,-0.2 0.1,-0.5 l -4.6,-12.1 h 2.3 l 2.5,7 c 0.4,0.9 0.7,1.9 0.9,2.9 0.2,-0.9 0.5,-1.9 0.9,-2.7 l 2.6,-7.1 h 2 l -4.6,12.4 c -0.3,0.9 -0.7,1.9 -1.1,2.7 -0.3,0.6 -0.7,1.1 -1.3,1.5 -0.5,0.4 -1.1,0.6 -1.7,0.5 -0.2,-0.2 -0.7,-0.2 -1.2,-0.5 z"
             clip-path="url(#SVGID_4_-6-1)"
             id="path7993" />
          <path
             inkscape:connector-curvature="0"
             style="fill:#00adee"
             d="m 821.3,569.2 c -1,0 -1.7,0.7 -1.8,1.7 h -5 v 0.4 h 5 c 0.1,0.9 0.9,1.5 1.8,1.5 1,0 1.8,-0.8 1.8,-1.8 0.1,-1 -0.7,-1.8 -1.8,-1.8 m 0,3.2 c -0.8,0 -1.4,-0.6 -1.4,-1.4 0,-0.8 0.6,-1.4 1.4,-1.4 0.8,0 1.4,0.6 1.4,1.4 0,0.8 -0.6,1.4 -1.4,1.4"
             clip-path="url(#SVGID_4_-6-1)"
             id="path7995" />
          <path
             inkscape:connector-curvature="0"
             style="fill:#00adee"
             d="m 833,578.6 c -0.9,0 -1.7,0.7 -1.8,1.6 h -6.5 l -1.9,-1.9 h -8.3 v 0.4 h 8.2 l 1.9,1.9 h 6.6 c 0.1,0.9 0.9,1.6 1.8,1.6 1,0 1.8,-0.8 1.8,-1.8 0,-1 -0.8,-1.8 -1.8,-1.8 m 0,3.2 c -0.8,0 -1.4,-0.6 -1.4,-1.4 0,-0.8 0.6,-1.4 1.4,-1.4 0.8,0 1.4,0.6 1.4,1.4 0,0.8 -0.6,1.4 -1.4,1.4"
             clip-path="url(#SVGID_4_-6-1)"
             id="path7997" />
          <path
             inkscape:connector-curvature="0"
             style="fill:#00adee"
             d="m 833,570.6 c -0.9,0 -1.7,0.7 -1.8,1.6 h -5.4 l -3.3,3.4 h -8.3 v 0.4 h 8.5 l 3.2,-3.4 h 5.2 c 0.1,0.9 0.9,1.6 1.8,1.6 1,0 1.8,-0.8 1.8,-1.8 0.1,-1 -0.7,-1.8 -1.7,-1.8 m 0,3.2 c -0.8,0 -1.4,-0.6 -1.4,-1.4 0,-0.8 0.6,-1.4 1.4,-1.4 0.8,0 1.4,0.6 1.4,1.4 0,0.8 -0.6,1.4 -1.4,1.4"
             clip-path="url(#SVGID_4_-6-1)"
             id="path7999" />
          <path
             inkscape:connector-curvature="0"
             style="fill:#fff2df"
             d="m 999.3,565.7 c 0,0.3 -0.3,0.6 -0.6,0.6 h -3.2 v 11.4 c 0,0.5 -0.4,1 -1,1 h -24.3 c -0.5,0 -1,-0.4 -1,-1 V 566.3 H 966 c -0.2,0 -0.3,-0.1 -0.4,-0.2 -0.1,-0.1 -0.2,-0.3 -0.2,-0.5 0,-0.2 0.1,-0.3 0.2,-0.4 l 16.3,-16.3 c 0.3,-0.3 0.7,-0.3 0.9,0 l 8.5,8.5 v -1.6 c 0,-0.3 0.3,-0.6 0.6,-0.6 h 2.7 c 0.3,0 0.6,0.3 0.6,0.6 v 5 c 0,0.1 -0.1,0.3 -0.1,0.4 l 4.1,4.1 c 0.1,0.1 0.1,0.2 0.1,0.4"
             clip-path="url(#SVGID_4_-6-1)"
             id="path8001" />
          <path
             inkscape:connector-curvature="0"
             style="fill:#00adee"
             d="m 991,570.5 c -0.5,0 -0.9,0.3 -1.1,0.8 h -3.8 l 2.5,-2.4 v -2.5 l 1.8,-1.7 c 0.2,0.1 0.4,0.1 0.6,0.1 0.6,0 1.1,-0.5 1.1,-1.1 0,-0.6 -0.5,-1.1 -1.1,-1.1 -0.6,0 -1.1,0.5 -1.1,1.1 0,0.2 0,0.3 0.1,0.4 l -1.3,1.2 v -3.8 c 0.4,-0.2 0.8,-0.6 0.8,-1.1 0,-0.6 -0.5,-1.1 -1.1,-1.1 -0.6,0 -1.1,0.5 -1.1,1.1 0,0.5 0.3,0.9 0.8,1.1 v 3.8 l -1.2,-1.1 c 0.1,-0.1 0.1,-0.3 0.1,-0.5 0,-0.6 -0.5,-1.1 -1.1,-1.1 -0.6,0 -1.1,0.5 -1.1,1.1 0,0.6 0.5,1.1 1.1,1.1 0.2,0 0.3,0 0.5,-0.1 l 1.7,1.6 v 2.2 l -2.3,2.2 -0.1,-1.8 c 0.4,-0.2 0.8,-0.6 0.8,-1.1 0,-0.6 -0.5,-1.1 -1.1,-1.1 -0.6,0 -1.1,0.5 -1.1,1.1 0,0.5 0.3,0.9 0.8,1.1 l 0.1,2.5 -2.3,2.2 v -12.2 l 2,-1.9 c 0.1,0 0.3,0.1 0.4,0.1 0.6,0 1.1,-0.5 1.1,-1.1 0,-0.6 -0.5,-1.1 -1.1,-1.1 -0.6,0 -1.1,0.5 -1.1,1.1 0,0.2 0.1,0.4 0.2,0.6 l -1.8,1.7 -1.7,-1.8 c 0.1,-0.1 0.1,-0.3 0.1,-0.5 0,-0.6 -0.5,-1.1 -1.1,-1.1 -0.6,0 -1.1,0.5 -1.1,1.1 0,0.6 0.5,1.1 1.1,1.1 0.2,0 0.3,0 0.5,-0.1 l 1.8,2 v 8.5 l -3.1,-3 v -2.4 c 0.4,-0.2 0.8,-0.6 0.8,-1.1 0,-0.6 -0.5,-1.1 -1.1,-1.1 -0.6,0 -1.1,0.5 -1.1,1.1 0,0.5 0.3,0.9 0.8,1.1 v 1.7 l -2.5,-2.5 v -2.4 c 0.4,-0.2 0.8,-0.6 0.8,-1.1 0,-0.6 -0.5,-1.1 -1.1,-1.1 -0.6,0 -1.1,0.5 -1.1,1.1 0,0.5 0.3,0.9 0.8,1.1 v 2.7 l 2.8,2.8 h -1.8 c -0.2,-0.4 -0.6,-0.8 -1.1,-0.8 -0.6,0 -1.1,0.5 -1.1,1.1 0,0.6 0.5,1.1 1.1,1.1 0.5,0 0.9,-0.3 1.1,-0.8 h 2.6 l 3.5,3.4 v 6.5 l -1.9,-1.9 v -2.4 c 0.4,-0.2 0.8,-0.6 0.8,-1.1 0,-0.6 -0.5,-1.1 -1.1,-1.1 -0.6,0 -1.1,0.5 -1.1,1.1 0,0.5 0.3,0.9 0.8,1.1 v 1.7 l -3,-3 c 0,-0.1 0.1,-0.3 0.1,-0.4 0,-0.6 -0.5,-1.1 -1.1,-1.1 -0.6,0 -1.1,0.5 -1.1,1.1 0,0.6 0.5,1.1 1.1,1.1 0.2,0 0.4,-0.1 0.6,-0.2 l 3,3 h -1.8 c -0.2,-0.4 -0.6,-0.8 -1.1,-0.8 -0.6,0 -1.1,0.5 -1.1,1.1 0,0.6 0.5,1.1 1.1,1.1 0.5,0 0.9,-0.3 1.1,-0.8 h 2.6 l 2.8,2.8 3,-2.7 h 2.5 c 0.1,0.5 0.6,0.8 1.1,0.8 0.6,0 1.1,-0.5 1.1,-1.1 0,-0.6 -0.5,-1.1 -1.1,-1.1 -0.5,0 -0.9,0.3 -1,0.7 H 986 l -2.3,2.1 v -2.9 l 2.7,-2.6 h 4.5 c 0.2,0.4 0.6,0.8 1.1,0.8 0.6,0 1.1,-0.5 1.1,-1.1 -1,-0.6 -1.5,-1.1 -2.1,-1.1 m 0,-7.4 c 0.3,0 0.6,0.2 0.6,0.6 0,0.3 -0.3,0.6 -0.6,0.6 -0.3,0 -0.6,-0.3 -0.6,-0.6 0,-0.4 0.3,-0.6 0.6,-0.6 m -5.3,1.1 c -0.3,0 -0.6,-0.3 -0.6,-0.6 0,-0.3 0.3,-0.6 0.6,-0.6 0.3,0 0.6,0.2 0.6,0.6 -0.1,0.4 -0.3,0.6 -0.6,0.6 m 2,-3.8 c 0,-0.3 0.2,-0.6 0.6,-0.6 0.3,0 0.6,0.3 0.6,0.6 0,0.3 -0.2,0.6 -0.6,0.6 -0.3,-0.1 -0.6,-0.3 -0.6,-0.6 m -3.1,7.5 c 0,-0.3 0.3,-0.6 0.6,-0.6 0.3,0 0.6,0.3 0.6,0.6 0,0.3 -0.3,0.6 -0.6,0.6 -0.3,-0.1 -0.6,-0.3 -0.6,-0.6 m -5.6,-9.4 c 0,-0.3 0.2,-0.6 0.6,-0.6 0.4,0 0.6,0.2 0.6,0.6 0,0.3 -0.2,0.6 -0.6,0.6 -0.4,0 -0.6,-0.3 -0.6,-0.6 m -1.1,5 c 0,-0.3 0.3,-0.6 0.6,-0.6 0.3,0 0.6,0.2 0.6,0.6 0,0.3 -0.3,0.6 -0.6,0.6 -0.4,0 -0.6,-0.3 -0.6,-0.6 m -3.3,-3.2 c 0,-0.3 0.2,-0.6 0.6,-0.6 0.4,0 0.6,0.3 0.6,0.6 0,0.3 -0.2,0.6 -0.6,0.6 -0.4,0 -0.6,-0.3 -0.6,-0.6 m 0.1,7.5 c -0.3,0 -0.6,-0.2 -0.6,-0.6 0,-0.3 0.3,-0.6 0.6,-0.6 0.3,0 0.6,0.2 0.6,0.6 0,0.3 -0.3,0.6 -0.6,0.6 m 4.4,4.3 c 0,-0.3 0.2,-0.6 0.6,-0.6 0.3,0 0.6,0.2 0.6,0.6 0,0.3 -0.2,0.6 -0.6,0.6 -0.4,0 -0.6,-0.3 -0.6,-0.6 m -3.2,4.2 c -0.3,0 -0.6,-0.2 -0.6,-0.6 0,-0.3 0.2,-0.6 0.6,-0.6 0.3,0 0.6,0.3 0.6,0.6 -0.1,0.4 -0.3,0.6 -0.6,0.6 m 12.9,-1 c 0.3,0 0.6,0.2 0.6,0.6 0,0.3 -0.2,0.6 -0.6,0.6 -0.3,0 -0.6,-0.3 -0.6,-0.6 0,-0.3 0.3,-0.6 0.6,-0.6 M 985,557.9 c 0.3,0 0.6,0.2 0.6,0.6 0,0.3 -0.3,0.6 -0.6,0.6 -0.3,0 -0.6,-0.3 -0.6,-0.6 0,-0.3 0.3,-0.6 0.6,-0.6 m -9.8,14.2 c -0.3,0 -0.6,-0.2 -0.6,-0.6 0,-0.4 0.2,-0.6 0.6,-0.6 0.4,0 0.6,0.2 0.6,0.6 0,0.4 -0.3,0.6 -0.6,0.6 m 15.8,0.1 c -0.3,0 -0.6,-0.2 -0.6,-0.6 0,-0.3 0.2,-0.6 0.6,-0.6 0.4,0 0.6,0.3 0.6,0.6 -0.1,0.3 -0.3,0.6 -0.6,0.6"
             clip-path="url(#SVGID_4_-6-1)"
             id="path8003" />
        </g>
      </g>
    </g>
  </g>
  <g
     inkscape:groupmode="layer"
     id="layer7"
     inkscape:label="Clock"
     style="display:inline">
    <text
       inkscape:label="#sensor.floorplan_time"
       y="680.03711"
       x="541.54871"
       style="font-size:226.71646118px;font-family:Helvetica;display:inline;fill:#e6e6e6;stroke-width:4.67141962"
       id="sensor.floorplan_time">9:36 PM</text>
  </g>
  <g
     inkscape:groupmode="layer"
     id="layer1"
     inkscape:label="Brightness Control"
     style="display:inline">
    <rect
       style="display:inline;opacity:1;fill:#000000;fill-opacity:1;stroke-width:0.82866812"
       id="input_boolean.wallpanel_blackout"
       width="585.97601"
       height="1200.0001"
       x="0"
       y="-0.00012207031" />
  </g>
</svg>
